{"title":"Bhartiya 2012 Marathi 1080p Untouched WebHD x264 AAC [TMB]","uid":15586453,"size":4420404149,"categoryP":"video","categoryS":"movies","magnet":"?xt=urn:btih:8dd7352df9e7b464bede94d012be2527eb6cdd0b&amp;dn=Bhartiya+2012+Marathi+1080p+Untouched+WebHD+x264+AAC+%5BTMB%5D&amp;tr=udp%3A%2F%2Ftracker.leechers-paradise.org%3A6969&amp;tr=udp%3A%2F%2Fzer0day.ch%3A1337&amp;tr=udp%3A%2F%2Fopen.demonii.com%3A1337&amp;tr=udp%3A%2F%2Ftracker.coppersurfer.tk%3A6969&amp;tr=udp%3A%2F%2Fexodus.desync.com%3A6969","seeders":1,"leechers":0,"uploader":"Manoj_vb","files":1,"time":1471468221,"description":"http://i1306.photobucket.com/albums/s570/zyx55e/44_zpsc46e809d.gif\r\n \nhttps://postimg.org/image/45fyberqz/\r\n \nhttps://postimg.org/image/oe3bx4r23/\r\n \nhttps://postimg.org/image/5n1emywhn/\r\n \nhttps://postimg.org/image/k7n2vjgu3/\r\n \nhttps://postimg.org/image/ys45qdbsr/\r\n \nhttps://postimg.org/image/iv5dtnjej/\r\n \nhttps://postimg.org/image/kbgwbsmbf/\r\n \nhttps://postimg.org/image/ck06d8i63/\r\n \nhttps://postimg.org/image/v0ul41y4b/\r\n \nhttps://postimg.org/image/bx19npla3/\r\n \nhttps://postimg.org/image/h9q41u96j/\r\n \nhttp://i1306.photobucket.com/albums/s570/zyx55e/oie_11162011MOJeDGQI_zpsc25b2b81.gif\r\n\r\nGeneral\r\nComplete name               : Bhartiya 2012 1080p Untouched WebHD x264 AAC [TMB].mp4\r\nFormat                      : MPEG-4\r\nFormat profile              : Base Media\r\nCodec ID                    : isom (isom/iso2/avc1/mp41)\r\nFile size                   : 4.12 GiB\r\nDuration                    : 2h 9mn\r\nOverall bit rate mode       : Variable\r\nOverall bit rate            : 4 568 Kbps\r\nWriting application         : Lavf56.40.101\r\n\r\nVideo\r\nFormat                      : AVC\r\nFormat/Info                 : Advanced Video Codec\r\nFormat profile              :   \r\nFormat settings, CABAC      : Yes\r\nFormat settings, ReFrames   : 1 frame\r\nFormat settings, GOP        : M=1, N=25\r\nCodec ID                    : avc1\r\nCodec ID/Info               : Advanced Video Coding\r\nDuration                    : 2h 9mn\r\nBit rate mode               : Constant\r\nBit rate                    : 4 500 Kbps\r\nWidth                       : 1 920 pixels\r\nHeight                      : 1 080 pixels\r\nDisplay aspect ratio        : 16:9\r\nFrame rate mode             : Constant\r\nFrame rate                  : 25.000 fps\r\nColor space                 : YUV\r\nChroma subsampling          : 4:2:0\r\nBit depth                   : 8 bits\r\nScan type                   : Progressive\r\nBits/(Pixel*Frame)          : 0.087\r\nStream size                 : 4.06 GiB (99%)\r\n\r\nAudio\r\nFormat                      : AAC\r\nFormat/Info                 : Advanced Audio Codec\r\nFormat profile              : LC\r\nCodec ID                    : 40\r\nDuration                    : 2h 9mn\r\nBit rate mode               : Variable\r\nBit rate                    : 61.4 Kbps\r\nMaximum bit rate            : 63.8 Kbps\r\nChannel(s)                  : 2 channels\r\nChannel positions           : Front: L R\r\nSampling rate               : 48.0 KHz\r\nFrame rate                  : 46.875 fps (1024 spf)\r\nCompression mode            : Lossy\r\nStream size                 : 56.7 MiB (1%)\r\n\r\nUploaded &amp; Shared by Manojvb\r\n\r\nSeeding 24x7... Extreme Seeding...\r\n\r\n \nhttp://i1306.photobucket.com/albums/s570/zyx55e/oie_1117625zVIGKvnK_zpsc8b6e055.gif","torrent":{"xt":"urn:btih:8dd7352df9e7b464bede94d012be2527eb6cdd0b","amp;dn":"Bhartiya+2012+Marathi+1080p+Untouched+WebHD+x264+AAC+%5BTMB%5D","amp;tr":["udp%3A%2F%2Ftracker.leechers-paradise.org%3A6969","udp%3A%2F%2Fzer0day.ch%3A1337","udp%3A%2F%2Fopen.demonii.com%3A1337","udp%3A%2F%2Ftracker.coppersurfer.tk%3A6969","udp%3A%2F%2Fexodus.desync.com%3A6969"],"infoHash":"8dd7352df9e7b464bede94d012be2527eb6cdd0b","infoHashBuffer":{"type":"Buffer","data":[141,215,53,45,249,231,180,100,190,222,148,208,18,190,37,39,235,108,221,11]},"announce":[],"urlList":[]}}